<svg xmlns="http://www.w3.org/2000/svg" width="4444" height="4444" version="1.0" viewBox="0 0 3333 3333"><path d="M930 240.1c-18.3 2.1-37.4 7.2-55.3 14.9-32 13.8-63 40.2-81.9 70-11.3 17.7-725.9 1257.2-729.4 1265-21.5 48.8-21.4 104.5.1 153 4.2 9.6 721 1252.4 731 1267.5 30.5 46.1 80.7 76.3 136.7 82.4 13.8 1.5 1457 1.5 1470.6 0 56.3-6.2 106.2-36.3 136.7-82.4 7.7-11.6 721.9-1249 728.2-1261.6 24.2-48.4 25.3-108.3 2.8-159-2.3-5.2-69.4-122.4-149.1-260.5-94.1-162.9-144.9-251.8-144.8-253.4.1-1.4 1.7-6.9 3.8-12.3 2-5.4 4.8-15.5 6.3-22.5 2.6-11.9 2.7-14.3 2.7-37.2 0-22.8-.1-25.4-2.7-37.1-15.7-73.3-72.6-128.9-145.7-142.3l-12.4-2.2-56.8-98.5c-31.2-54.1-95.8-166-143.6-248.7-58.7-101.7-89.2-153.7-94.6-160.9-30.7-41.5-78.2-68.5-130.8-74.2-11.9-1.3-1460.3-1.3-1471.8 0zm1543 386.6c56.7 98.4 103.2 179.1 103.3 179.4.1.3-173 175.1-384.7 388.4-211.7 213.4-384.4 388.1-383.8 388.3.6.2 238.5-62.3 528.8-138.7 290.2-76.5 527.8-139 528-138.9.1.2 47.1 81.5 104.4 180.8 100.9 174.7 104.2 180.6 102.8 183-.8 1.4-159.1 275.5-351.7 609.2L2369.7 2885H963.3l-350.4-606.8C420.3 1944.5 262 1670.4 261.2 1669c-1.4-2.4 9.6-21.7 350.3-611.8L963.2 448h1406.6L2473 626.7zm165.5 286.7 5.2 8.9-3.2 7.1c-5.2 11.3-9.3 23.9-12.2 37.5-2.6 11.7-2.7 14.3-2.7 37.1s.1 25.4 2.7 37.1c12 56.2 48 102.3 99.1 127 19.5 9.4 40.8 15.5 61.3 17.5l7.3.7 10.1 17.6c5.6 9.7 11.1 19.1 12.1 20.9 1.9 3-6.9-1.2-104.3-49.8-58.5-29.3-106.5-53.3-106.7-53.5-.4-.3 12.6-225 13.4-232.4l.6-5.4 6 10.4c3.4 5.7 8.5 14.4 11.3 19.3zm186.5 15.2c8.3 4 17.9 10.5 22.7 15.6 7.1 7.4 10.8 21.2 8.2 30.5-1.6 5.8-9.5 14.3-15.2 16.4-2 .7-3.7 1.5-3.7 1.9 0 .3 3.7 2.3 8.3 4.5 15 7.2 21 16 21.1 31 .1 9.5-3.2 16.3-12.8 25.8-5.9 6-9.7 8.6-22.4 15.5l-15.3 8.4-5.2-1.2c-6.2-1.4-25.7-10.5-32.3-15.1-2.6-1.8-8-6.4-12.1-10.2-5.8-5.5-7.3-7.6-7.3-9.8 0-2.7.7-3.3 10.5-7.9 5.8-2.8 11-5 11.5-5s1.4.8 1.9 1.8c1.4 2.6 14.4 11.4 23.7 16.1 8.1 4 21.7 8.5 29.1 9.7 5.3.8 6.8-.3 9.9-7.1 2.7-5.8 3.2-14.1 1-18.3-.8-1.5-2.7-3.9-4.3-5.5-2.6-2.4-22.3-11.7-39.5-18.6-5-2-5.8-2.7-5.8-5 0-2.4 1.4-3.3 14.3-9.8 18.7-9.4 25.7-15.5 25.7-22.5 0-5.9-21.4-19.9-37.4-24.4-5.9-1.6-6-1.6-7.8.5-2.1 2.7-3.2 8.2-2.4 11.7.4 1.5 2 3.9 3.7 5.5 1.8 1.6 2.9 3.7 2.9 5.3 0 1.4-.2 2.6-.3 2.6-.2 0-4.8 1.3-10.3 3-5.4 1.6-10.4 3-11.1 3-.7 0-2-2.6-2.9-5.7-1.4-4.8-1.5-6.5-.5-10.1 2.5-9.6 12-19.2 29.1-29.7 12.6-7.7 14.5-8 25-2.9z"/></svg>